# xmcd
#
# Track frame offsets: 
#        150
#        42976
#        65106
#        89712
#        113634
#        143714
#        171242
#        199378
#        224120
#        245635
#
# Disc length: 3623 seconds
#
# Revision: 2
# Processed by: cddbd v1.5.2PL0 Copyright (c) Steve Scherf et al.
# Submitted via: ExactAudioCopy v0.90a11
#
DISCID=a50e250a
DTITLE=Abercrombie - Gomez - Jackson - Structures (SACD)
DYEAR=2006
DGENRE=Contemporary Jazz
TTITLE0=Jazz Folk
TTITLE1=The Touch Of Your Lips
TTITLE2=Moon And Sand
TTITLE3=Walter Pidgeon
TTITLE4=Everything I Love
TTITLE5=Embraceable You
TTITLE6=3 For Three
TTITLE7=Turn Out The Stars
TTITLE8=Missing You
TTITLE9=How Deep Is The Ocean
EXTD=This is a Hybrid SACD.
EXTT0=
EXTT1=
EXTT2=
EXTT3=
EXTT4=
EXTT5=
EXTT6=
EXTT7=
EXTT8=
EXTT9=
PLAYORDER=
